<?xml version="1.0" encoding="utf-8"?>
<!-- Generator: Adobe Illustrator 19.0.1, SVG Export Plug-In . SVG Version: 6.00 Build 0)  -->
<svg version="1.1" id="Layer_1" xmlns="http://www.w3.org/2000/svg" xmlns:xlink="http://www.w3.org/1999/xlink" x="0px" y="0px"
	 viewBox="0 0 617.8 41.4" enable-background="new 0 0 617.8 41.4" xml:space="preserve">
<path fill="#010101" d="M7.5,4.6c1.1-0.6,1.8-1,2.1-1.3c0.5-0.6,1.2-0.8,2.1-0.8c1.1,0,1.9-0.3,2.5-0.8c0.3-0.3,0.8-0.3,1.7,0h1.7
	c0.8-0.3,1.8-0.3,2.9,0c0.8,0,1.4,0.1,1.7,0.4l1.7,0.8c1.1,0.6,1.8,1,2.1,1.5c0.3,0.4,0.7,1.3,1.2,2.7L28,7.5c1.1,0,1.4,0.3,0.8,0.8
	c0,0.6,0.1,1.2,0.4,2.1c0.3,0.8,0.4,1.5,0.4,2.1c0.3,0.3,0.4,1,0.4,2.1c-0.3,0.6-0.4,1.1-0.4,1.7c0,0.6-0.1,1.1-0.4,1.7
	c0,0.3-0.3,0.7-0.8,1.3c0,0.3-0.1,0.4-0.4,0.4c-0.3,0-0.4,0.1-0.4,0.4c-0.6,1.1-1.8,2-3.8,2.5c-0.3,0-0.6,0.1-0.8,0.4
	c-0.3,0.3-0.7,0.4-1.2,0.4h-0.8c-0.6,0.3-1.2,0.3-1.9,0c-0.7-0.3-1.5-0.5-2.3-0.8c-0.5-0.3-1.1-1-1.7-2.1c-0.3-0.6-0.6-1-0.8-1.3
	c-0.3-0.3-0.6-0.7-0.8-1.3v-0.4c-0.3-0.3-0.3-0.4,0-0.4c0.6-0.6,0.7-1,0.4-1.3c-0.3-0.3-0.4-0.7-0.4-1.2l0.8-1.7h1.7
	c0.3,0.3,0.7,0.1,1.2-0.4c0.3,0,0.7,0.3,1.3,0.8c1.1,0.6,1.7,1.3,1.7,2.1c0,1.1,0.4,1.3,1.3,0.4c0.8,0,1.3-0.4,1.3-1.2v-0.8
	c0.3-1.9-0.4-3.5-2.1-4.6c-0.6-0.6-1.1-0.8-1.7-0.8c-3.1-0.6-5.6,0-7.5,1.7c-1.4,0.8-2.2,1.4-2.5,1.7c-0.5,0.6-0.8,1-0.8,1.3
	c0,0.3-0.1,0.7-0.4,1.3C7,15,6.6,16,6.5,16.9c-0.1,1-0.2,1.9-0.2,2.7c0,0.8,0.1,1.3,0.4,1.3C7,21.5,7.1,22.2,7.1,23
	c0,0.6,0.1,0.9,0.4,1.1c0.3,0.1,0.4,0.5,0.4,1c0,0.6,0.3,1.1,0.8,1.7c0.8,0.8,1.4,1.5,1.7,2.1c0.3,0.8,0.8,1.2,1.7,1.2
	c0.5,0.6,1.1,1,1.7,1.3c0.6,0.6,1.1,1,1.7,1.3c0.3,0.3,1,0.4,2.1,0.4H18l3.8,1.3c0.8-0.3,2.1-0.4,3.8-0.4h5c1.1,0,2.2,0.1,3.1,0.2
	c1,0.1,2,0.1,3.1-0.2h0.4c1.4,0.3,2.6,0.3,3.6,0.2c1-0.1,2-0.2,3.1-0.2H46h1.3c1.1-0.3,2.1-0.3,2.9,0c0.6,0.3,1.5,0.4,2.9,0.4
	c0.3-0.3,1-0.4,2.1-0.4c0.5,0,1,0.1,1.2,0.2c0.3,0.1,0.7,0.1,1.3-0.2c0.8,0,1.5,0.1,2.1,0.4c0.5,0,1-0.1,1.5-0.2
	c0.4-0.1,0.9-0.2,1.5-0.2c0.6,0,1.1-0.1,1.7-0.2c0.6-0.1,1.1-0.1,1.7,0.2c0.3,0.3,0.7,0.4,1.3,0.4c0.5,0,1-0.1,1.5-0.2
	c0.4-0.1,0.9-0.2,1.5-0.2c0.5,0,1,0.1,1.2,0.2c0.3,0.1,0.7,0.2,1.3,0.2c0.5,0,0.9-0.1,1.1-0.2c0.1-0.1,0.3-0.2,0.6-0.2h3.3
	c1.4,0,2.8,0,4.2,0c1.4,0,2.8-0.1,4.2-0.4c1.1,0,2,0.1,2.5,0.4h1.3c1.1,0,2.1,0.1,2.9,0.2c0.8,0.1,1.8,0.1,2.9-0.2H97
	c0.3,0,0.5,0.1,0.6,0.2c0.1,0.1,0.3,0.2,0.6,0.2c1.1-0.3,2.6-0.4,4.6-0.4h2.9c0.5,0,1.1-0.1,1.7-0.2c0.6-0.1,1.1-0.1,1.7,0.2
	c0.5,0.3,1.1,0.3,1.7,0.2c0.6-0.1,1.1-0.2,1.7-0.2h2.1c0.6,0,1.2,0.1,1.9,0.2c0.7,0.1,1.3,0.1,1.9-0.2h3.8h3.8h1.7
	c1.1-0.3,2.2-0.3,3.1-0.2c1,0.1,2.2,0.2,3.6,0.2c1.1-0.3,2.2-0.3,3.1-0.2c1,0.1,2,0.2,3.1,0.2h7.1h4.6c2.8,0,4.9-0.1,6.3-0.4h0.8
	c1.4,0.6,2.9,0.7,4.6,0.4c1.7-0.3,3.2-0.3,4.6,0c0.6,0.3,1,0.3,1.3,0.2c0.3-0.1,0.5-0.2,0.8-0.2c0.8-0.3,1.4-0.3,1.7,0
	c0.6,0.3,1.3,0.3,2.1,0h0.8h1.3h4.2c3.6-0.3,7.5-0.3,11.7,0c1.4,0,2.9-0.1,4.4-0.2c1.5-0.1,3-0.1,4.4,0.2h0.8c2.8-0.3,5.6-0.3,8.4,0
	h0.8c1.4,0,2.6-0.1,3.8-0.2c1.1-0.1,2.4-0.1,3.8,0.2c1.7,0,3.4-0.1,5.2-0.2c1.8-0.1,3.6-0.2,5.2-0.2h1.2c0.8,0,1.6,0.1,2.3,0.2
	c0.7,0.1,1.3,0.1,1.9-0.2c0.8,0.3,1.6,0.3,2.3,0.2c0.7-0.1,1.5-0.2,2.3-0.2h1.7c0.8,0.6,1.7,0.6,2.5,0c0.6-0.3,1-0.3,1.3,0
	c0.3,0.3,0.7,0.3,1.3,0h2.1h6.3c1.7,0,2.9,0.1,3.8,0.4c0.8,0,1.7-0.1,2.5-0.2c0.8-0.1,1.7-0.1,2.5,0.2c1.1,0,2.2-0.1,3.3-0.2
	c1.1-0.1,2.4-0.2,3.8-0.2h3.8h4.2h1.3c0.5,0,1.2,0.1,1.9,0.2c0.7,0.1,1.3,0.1,1.9-0.2c0.5,0,1.2,0.1,1.9,0.2
	c0.7,0.1,1.3,0.2,1.9,0.2c0.5-0.3,1.1-0.3,1.7,0c0.6,0.3,1.1,0.3,1.7,0c0.6-0.3,1-0.3,1.5-0.2c0.4,0.1,0.9,0.1,1.5-0.2
	c2-0.3,3.8-0.3,5.4,0h2.1c1.1-0.3,2.4-0.3,3.8,0c0.8,0.3,1.6,0.3,2.3,0.2c0.7-0.1,1.5-0.2,2.3-0.2h4.6l0.4-0.4
	c1.1,0.3,2.6,0.4,4.6,0.4c0.8-0.3,1.7-0.3,2.5,0c0.8,0.3,1.5,0.3,2.1,0c1.7,0.3,3.3,0.3,4.8,0.2c1.5-0.1,3-0.2,4.4-0.2h1.7h5h2.5
	h1.2c1.1-0.6,2.2-0.7,3.1-0.4c1,0.3,2.2,0.4,3.5,0.4h0.8c3.1,0,5.3-0.1,6.7-0.4h2.9c0.6,0.3,0.9,0.4,1,0.2c0.1-0.1,0.5-0.2,1-0.2
	c0.6,0.3,1,0.4,1.5,0.2c0.4-0.1,0.9-0.1,1.5,0.2c1.1,0,1.9-0.1,2.5-0.4c1.4,0,2.4,0.1,2.9,0.4h2.9c0.8-0.6,1.9-0.6,3.3,0
	c1.4,0,2.2-0.1,2.5-0.4h1.3c0.5,0,1.1,0.1,1.7,0.2c0.5,0.1,1.1,0.2,1.7,0.2h2.1c0.5-0.3,1.7-0.4,3.3-0.4h6.3c2.8,0,4.9,0.1,6.3,0.4
	c0.5,0,1.2-0.1,1.9-0.2c0.7-0.1,1.3-0.1,1.9,0.2c1.4-0.6,2.8-0.7,4.2-0.4c1.4,0.3,2.8,0.3,4.2,0h8.8h25.9c1.4-0.3,2.6-0.3,3.8-0.2
	c1.1,0.1,2.4,0.2,3.7,0.2h7.1h14.2h6.7h6.7h5.8h6.3h11.3H525h6.7c1.4-0.3,2.6-0.3,3.5-0.2c1,0.1,2.2,0.2,3.6,0.2h5.4
	c1.1-0.3,2.2-0.4,3.3-0.4c1.1,0,2.2,0,3.3,0c1.7,0.3,3.3,0.4,5,0.4c1.7,0,3.3,0,5,0h5.8h5.8c0.5-0.3,1-0.3,1.3-0.2
	c0.3,0.1,0.7,0.2,1.2,0.2h3.8c1.7-0.3,3.3-0.3,5,0h10.9c1.1-0.3,2.1-0.5,2.9-0.6c0.8-0.1,1.8-0.3,2.9-0.6c1.1-0.6,2.1-1,2.9-1.3
	l0.8-0.8c0.8,0,1.4-0.3,1.7-0.8c0.3-0.6,0.7-1.1,1.2-1.7c1.1-1.4,1.9-2.8,2.3-4.2c0.4-1.4,0.9-2.8,1.5-4.2V18c0-1.4-0.1-2.4-0.4-2.9
	c-1.4-3.6-3.5-6.1-6.3-7.5c-0.8,0-1.4-0.1-1.7-0.4h-2.5c-1.1,0-2.6,0.7-4.6,2.1c-1.4,1.1-1.7,2.7-0.8,4.6c0.5,0.6,1,0.8,1.3,0.8
	c0.5,0.6,1,0.4,1.3-0.4h0.4v-0.4c0-1.1,1-1.9,2.9-2.5c1.1,0,2,0.3,2.5,0.8c0,0.3,0.1,0.4,0.2,0.4c0.1,0,0.2,0.1,0.2,0.4
	c0.3,0.8,0.4,2.2,0.4,4.2c-0.3,0.6-0.4,0.9-0.4,1.1c0,0.1-0.1,0.5-0.4,1c-0.6,0.3-1.3,0.8-2.1,1.7c-0.6,0.6-1.1,0.8-1.7,0.8
	c-2.5,1.1-5.2,0.7-7.9-1.3c-0.6-0.6-1-0.8-1.2-0.8c-1.1-0.8-1.8-1.7-2.1-2.7c-0.3-1-0.6-2-0.8-3.1v-1.3c0.3-0.6,0.4-1,0.2-1.5
	c-0.1-0.4-0.1-0.9,0.2-1.5c0.6-1.7,1-2.8,1.3-3.3c0.3-0.3,0.5-0.6,0.6-0.8c0.1-0.3,0.3-0.6,0.6-0.8c0.3-0.3,0.5-0.6,0.6-0.8
	c0.1-0.3,0.3-0.5,0.6-0.8c0.3-0.3,0.6-0.4,0.8-0.4c0.3,0,0.6-0.1,0.8-0.4c0.6,0,0.8-0.1,0.8-0.4c1.4-1.1,3.4-1.7,5.9-1.7
	c2,0,3.4,0.1,4.2,0.4c2.5,0.3,4.9,1.4,7.1,3.3c1.7,1.1,3.1,2.9,4.2,5.4c0.6,0.6,0.9,1.1,1,1.5c0.1,0.4,0.3,0.9,0.6,1.5
	c0,2.2,0.3,3.7,0.8,4.6c0,0.8-0.1,1.4-0.4,1.7c-0.3,0.5-0.4,1.1-0.2,1.7c0.1,0.6,0.1,1.1-0.2,1.7c0,1.7-0.4,3.5-1.2,5.4
	c-0.8,1.4-1.8,2.7-2.9,4c-1.1,1.3-2.4,2.6-3.8,4c-1.4,0.8-2.7,1.6-4,2.3c-1.2,0.7-2.3,1.1-3.1,1.1c-2.5,0.8-5.1,1.3-7.9,1.3
	c-3.1,0-5.9,0.1-8.6,0.2c-2.7,0.1-5.5,0.2-8.6,0.2c-3.9,0-7.7-0.1-11.3-0.2c-3.6-0.1-7.4-0.2-11.3-0.2c-2.8,0-4.7,0.1-5.8,0.4h-4.6
	c-1.1-0.3-2.9-0.4-5.4-0.4c-1.1,0-2.1,0.1-2.9,0.2c-0.8,0.1-1.8,0.1-2.9-0.2h-6.3h-2.5c-1.4,0.6-2.9,0.6-4.6,0
	c-1.4,0-2.4,0.1-2.9,0.4c-0.5,0-1,0.1-1.5,0.2c-0.4,0.1-0.9,0.1-1.5-0.2h-2.9c-0.5,0.3-1.2,0.3-1.9,0.2c-0.7-0.1-1.3-0.2-1.9-0.2
	h-3.3c-1.4,0.3-2.8,0.3-4.2,0.2c-1.4-0.1-2.8-0.2-4.2-0.2c-1.1,0.3-2.2,0.3-3.3,0.2c-1.1-0.1-2.4-0.2-3.8-0.2h-1.3
	c-1.4-0.6-2.5-0.6-3.3,0h-1.7c-0.6-0.3-1-0.3-1.5-0.2c-0.4,0.1-0.9,0.2-1.5,0.2h-2.5c-0.8,0.6-1.7,0.6-2.5,0
	c-0.8-0.3-1.6-0.3-2.3-0.2c-0.7,0.1-1.5,0.2-2.3,0.2c-0.6-0.3-1.3-0.3-2.1-0.2c-0.8,0.1-1.5,0.2-2.1,0.2c-1.1,0.3-2.1,0.3-2.9,0.2
	c-0.8-0.1-1.8-0.2-2.9-0.2c-2.2-0.3-4.3-0.3-6.3,0c-0.8,0-1.7-0.1-2.5-0.2c-0.8-0.1-1.7-0.1-2.5,0.2h-4.6c-0.3,0-0.6,0.1-0.8,0.2
	c-0.3,0.1-0.7,0.1-1.3-0.2h-2.1h-1.3c-0.6,0-0.9-0.1-1-0.2c-0.1-0.1-0.5-0.1-1,0.2h-3.8h-3.4c-0.6,0.3-1.2,0.3-1.9,0.2
	c-0.7-0.1-1.3-0.2-1.9-0.2h-30.5c-1.1,0.3-2.5,0.4-4.2,0.4h-1.3c-0.6-0.3-1.2-0.3-1.9-0.2c-0.7,0.1-1.3,0.2-1.9,0.2
	c-2.5-0.3-5.2-0.3-7.9,0h-7.1H367h-0.4c-1.4-0.3-2.9-0.3-4.4-0.2c-1.5,0.1-3,0.2-4.4,0.2c-1.7,0-3.3,0-4.8,0c-1.5,0-3.1-0.1-4.8-0.4
	c-0.8,0-1.6,0.1-2.3,0.2c-0.7,0.1-1.5,0.2-2.3,0.2c-0.6,0-1.1,0.1-1.5,0.2c-0.4,0.1-0.9,0.1-1.5-0.2c-0.6-0.3-1-0.3-1.2-0.2
	c-0.3,0.1-0.7,0.2-1.3,0.2H334h-8.4h-5h-5.4h-11.3h-1.7c-0.8,0-1.6,0.1-2.3,0.2c-0.7,0.1-1.5,0.1-2.3-0.2c-0.6-0.3-1.2-0.3-1.9,0
	c-0.7,0.3-1.3,0.3-1.9,0h-1.7c-0.3,0-0.5,0.1-0.6,0.2c-0.1,0.1-0.3,0.2-0.6,0.2c-1.4-0.3-3.6-0.4-6.7-0.4c-0.6,0-1.2-0.1-1.9-0.2
	c-0.7-0.1-1.3-0.1-1.9,0.2c-0.6,0.3-1.1,0.1-1.7-0.4l-0.4-0.4c-1.1,0-2,0.1-2.5,0.4c-0.6,0-1.1,0.1-1.5,0.4c-0.4,0.3-0.9,0.3-1.4,0
	c-0.6,0-1,0.1-1.3,0.2c-0.3,0.1-0.7,0.1-1.2-0.2c-1.1,0.3-2.2,0.3-3.1,0.2c-1-0.1-2-0.1-3.1,0.2c-0.6,0-1-0.1-1.3-0.4h-2.1
	c-0.8,0.3-1.8,0.3-2.9,0c-0.6-0.3-1-0.3-1.3,0c-0.6,0.3-1.5,0.4-2.9,0.4c-0.8-0.3-1.7-0.3-2.7-0.2c-1,0.1-1.9,0.1-2.7-0.2
	c-1.4,0-2.6,0.1-3.8,0.2c-1.1,0.1-2.4,0.1-3.8-0.2h-0.8c-0.6,0-1.3,0.1-2.1,0.2c-0.8,0.1-1.5,0.1-2.1-0.2c-0.8,0.3-1.6,0.3-2.3,0.2
	c-0.7-0.1-1.3-0.2-1.9-0.2h-1.7c-1.1,0.3-2.1,0.3-2.9,0c-0.8,0-1.4,0.1-1.7,0.4H224c-1.4-0.5-2.9-0.5-4.6,0h-4.2
	c-0.6-0.3-1-0.3-1.5-0.2c-0.4,0.1-0.9,0.2-1.5,0.2c-0.6,0.3-1.1,0.4-1.7,0.2c-0.6-0.1-1.1-0.2-1.7-0.2h-5c-0.8,0-1.4-0.1-1.7-0.4
	h-1.3c-0.8,0.3-1.8,0.4-2.9,0.4h-2.5H191h-0.8h-3.8h-3.3h-3.8c-0.3-0.3-0.8-0.4-1.7-0.4c-0.8,0.6-1.7,0.8-2.5,0.6
	c-0.8-0.1-1.7-0.2-2.5-0.2h-4.2c-0.6,0-1.3-0.1-2.1-0.2c-0.8-0.1-1.5-0.1-2.1,0.2c-1.7,0-3.4,0.1-5,0.2c-1.7,0.1-3.3-0.1-5-0.6
	c-0.6,0-1.1,0.1-1.7,0.4H148c-1.1-0.5-2.1-0.5-2.9,0h-4.2h-1.7h-2.1c-1.4,0.6-2.7,0.6-3.8,0h-2.5c-0.6-0.3-1-0.3-1.3,0
	c-0.3,0.3-0.6,0.3-0.8,0c-0.6-0.3-1-0.3-1.3-0.2c-0.3,0.1-0.7,0.2-1.3,0.2h-1.7h-0.8h-5h-4.6h-5.9H107h-2.1h-6.3
	c-1.1,0-2.2,0.1-3.1,0.2c-1,0.1-2,0.1-3.1-0.2h-0.8c-0.6,0-1.1,0.1-1.7,0.2c-0.6,0.1-1.1,0.1-1.7-0.2h-2.9h-1.7
	c-0.6,0-1.3,0.1-2.1,0.2c-0.8,0.1-1.5,0.1-2.1-0.2c-0.6,0-1.2,0.1-1.9,0.2c-0.7,0.1-1.3,0.1-1.9-0.2c-0.8,0-1.7,0.1-2.5,0.2
	c-0.8,0.1-1.8,0.1-2.9-0.2h-5h-5.8c-1.1,0-2.1,0.1-2.9,0.2c-0.8,0.1-1.8,0.1-2.9-0.2h-0.4c-0.6,0-0.9,0.1-1,0.2
	c-0.1,0.1-0.5,0.1-1-0.2c-1.7-0.3-3.3-0.3-5,0c-1.7,0.3-3.3,0.4-5,0.4h-2.1h-1.7c-2,0-3.5-0.1-4.6-0.4c-2,0-3.5-0.1-4.6-0.4
	c-0.3,0-0.6,0.1-0.8,0.4h-0.4c-1.1,0-2.1,0.1-2.9,0.2c-0.8,0.1-1.7,0.1-2.5-0.2c-1.1,0-2-0.1-2.5-0.4c-0.3-0.3-0.7-0.4-1.3-0.4
	c-1.4-0.3-2.4-0.5-2.9-0.6c-0.6-0.1-1.4-0.6-2.5-1.5l-2.5-1.3c-0.6-0.3-1-0.6-1.3-0.8c-0.3-0.3-0.7-0.6-1.3-0.8v-0.8
	c0.3,0,0.4-0.1,0.4-0.2c0-0.1-0.1-0.2-0.4-0.2c-0.8,0-1.4-0.3-1.7-0.8c0-0.3-0.1-0.4-0.4-0.4c-0.3,0-0.4-0.1-0.4-0.4
	c-0.8-0.3-1.4-0.8-1.7-1.7c-0.6-0.8-0.9-1.7-1-2.7c-0.1-1-0.5-2-1.1-3.1c-0.3-0.3-0.4-1-0.4-2.1c-0.3-1.1-0.3-2.2,0-3.3v-1.7
	c-0.6-1.1-0.6-2.8,0-5c0.8-0.3,1.3-0.8,1.3-1.7c0-0.6,0.1-1,0.4-1.3c0.3-0.3,0.4-0.7,0.4-1.2c0.5,0,1.1-0.3,1.7-0.8
	c0.3-0.3,0.6-0.5,1-0.6c0.4-0.1,0.8-0.5,1.1-1c0.3-0.3,0.6-0.4,0.8-0.4l0.8-0.8H7.5z M35.1,23.8c-0.6-0.6-0.8-1.1-0.8-1.7
	c0-0.8-0.1-1.5-0.4-2.1c0-0.6,0.3-1.1,0.8-1.7c0.3-0.3,0.7-0.4,1.2-0.4c1.4,0.3,2.8,0.3,4.2,0.2c1.4-0.1,2.8-0.2,4.2-0.2
	c2.8-0.6,5-0.4,6.7,0.4c0.8-0.6,2.1-0.8,3.8-0.8c0.5,0.3,1.2,0.6,2.1,0.8c0.8,0.3,1.7,0.1,2.5-0.4h0.4h3.8c0.8-0.3,1.7-0.3,2.5-0.2
	c0.8,0.1,1.7,0.1,2.5-0.2c0.5,0,0.8,0.1,0.8,0.4h2.5c0.6,0,0.9-0.1,1-0.2c0.1-0.1,0.5-0.2,1.1-0.2c0.3,0,0.5,0.1,0.8,0.2
	c0.3,0.1,0.6,0.2,0.8,0.2h1.3c1.1-0.3,2.2-0.3,3.1-0.2c1,0.1,2,0.1,3.1-0.2c0.6,0,1.1,0.1,1.5,0.2c0.4,0.1,0.9,0.2,1.5,0.2
	c0.8-0.3,1.6-0.3,2.3,0c0.7,0.3,1.3,0.3,1.9,0c0.5-0.3,1.2-0.3,1.9-0.2c0.7,0.1,1.3,0.1,1.9-0.2c0.3,0,0.6,0.1,0.8,0.2
	c0.3,0.1,0.7,0.2,1.3,0.2c0.8-0.3,1.6-0.3,2.3-0.2c0.7,0.1,1.5,0.1,2.3-0.2c1.1,0,1.8,0.1,2.1,0.4h0.8c0.8-0.6,1.7-0.7,2.7-0.4
	c1,0.3,2,0.4,3.1,0.4c0.5,0,1.1,0.1,1.7,0.2c0.5,0.1,1.1-0.1,1.7-0.6c1.4,0.3,2.6,0.3,3.7,0.2c1.1-0.1,2.4-0.2,3.8-0.2
	c1.1,0.3,2.2,0.3,3.3,0h1.7c0.6,0.3,1.5,0.4,2.9,0.4c0.5-0.3,1.2-0.3,1.9-0.2c0.7,0.1,1.3,0.1,1.9-0.2c0.6,0.3,1.7,0.4,3.3,0.4
	c0.8-0.3,2.1-0.4,3.8-0.4c1.4,0,2.5,0.1,3.3,0.4c1.7,0,3.1-0.1,4.2-0.4c0.8,0,1.4,0.1,1.7,0.4h1.3c0.6-0.3,1.2-0.3,2.1,0
	c0.8,0,1.6-0.1,2.3-0.2c0.7-0.1,1.3-0.1,1.9,0.2c0.8-0.6,1.6-0.6,2.3-0.2c0.7,0.4,1.5,0.3,2.3-0.2c0.8,0,1.7-0.1,2.7-0.2
	c1-0.1,1.9-0.1,2.7,0.2c1.4,0.3,2.9,0.3,4.6,0h2.9c0.6,0.3,1.2,0.3,1.9,0.2c0.7-0.1,1.3-0.1,1.9,0.2h1.3c1.1-0.3,2.4-0.3,3.7,0
	c1.1,0,2-0.1,2.5-0.4c0.6,0,1,0.1,1.3,0.4h0.8c0.6-0.6,1.1-0.8,1.7-0.6c0.6,0.1,1.1,0.2,1.7,0.2c0.8,0,1.4,0.1,1.7,0.4h0.8
	c1.1,0,1.9-0.1,2.5-0.4c0.6,0,1,0.1,1.5,0.4c0.4,0.3,0.9,0.3,1.5,0c0.8-0.3,2.1-0.4,3.8-0.4c1.4,0,2.8-0.1,4.2-0.2
	c1.4-0.1,2.8,0.1,4.2,0.6h0.8c1.4-0.6,2.5-0.6,3.4,0c0.3,0,0.5-0.1,0.8-0.4h2.1c1.4,0.3,2.6,0.3,3.8,0.2c1.1-0.1,2.4-0.2,3.8-0.2
	c2-0.6,3.6-0.4,5,0.4c0.3,0,0.4-0.1,0.4-0.4c1.7-0.3,3.3-0.3,4.8-0.2c1.5,0.1,3,0.2,4.4,0.2c1.7-0.3,3.3-0.3,4.8,0
	c1.5,0.3,3.1,0.1,4.8-0.4h0.4c2.2,0.6,4.3,0.8,6.3,0.6c1.9-0.1,3.9-0.2,5.8-0.2h2.1c0.8,0.6,1.7,0.6,2.5,0c1.1-0.3,2.2-0.3,3.1-0.2
	c1,0.1,2.2,0.2,3.6,0.2c0.5,0,1,0.1,1.4,0.2c0.4,0.1,0.9,0.2,1.5,0.2c0.5,0,1-0.1,1.5-0.2c0.4-0.1,0.9-0.2,1.5-0.2h3.8
	c0.8,0,1.4,0.1,1.7,0.4h1.7c1.4-0.6,2.5-0.6,3.3,0h1.2c0.8-0.3,2.2-0.4,4.2-0.4c1.1,0.6,2.4,0.6,3.8,0c0.8,0,1.7,0,2.7,0
	c1,0,1.9-0.1,2.7-0.4h0.8c0.8,0.6,1.7,0.8,2.5,0.6c0.8-0.1,1.8-0.2,2.9-0.2c2.2-0.3,4.6-0.3,7.1,0c1.4,0,2.9-0.1,4.4-0.2
	c1.5-0.1,3-0.1,4.4,0.2c0.8-0.3,1.7-0.3,2.5-0.2c0.8,0.1,1.7,0.2,2.5,0.2c0.6-0.3,1.1-0.3,1.7-0.2c0.6,0.1,1.1,0.2,1.7,0.2h3.3h3.8
	h2.1h4.6c1.1,0,1.9-0.1,2.5-0.4h1.7c0.6-0.3,1-0.3,1.5,0c0.4,0.3,0.9,0.3,1.5,0c0.5-0.3,1-0.3,1.5,0c0.4,0.3,0.9,0.4,1.5,0.4
	c0.6,0,1.2-0.1,1.9-0.2c0.7-0.1,1.3-0.2,1.9-0.2c0.6,0,1.1-0.1,1.7-0.2c0.6-0.1,1.1,0.1,1.7,0.6c0.8-0.3,1.7-0.3,2.5-0.2
	c0.8,0.1,1.7,0.1,2.5-0.2h1.7c1.4,0.3,2.6,0.3,3.8,0.2c1.1-0.1,2.4-0.2,3.8-0.2c0.5,0,1-0.1,1.5-0.2c0.4-0.1,0.9-0.1,1.5,0.2
	c0.3,0.3,0.4,0.3,0.4,0c1.4-0.3,2.8-0.3,4.2-0.2c1.4,0.1,2.8,0.2,4.2,0.2c1.4,0,2.8,0,4.2,0s2.8,0.1,4.2,0.4c1.4,0,2.5-0.1,3.3-0.4
	h6.3h6.3c1.1,0,2.2,0.1,3.3,0.2c1.1,0.1,2.2-0.1,3.3-0.6c0.3,0,0.5,0.1,0.6,0.2c0.1,0.1,0.3,0.2,0.6,0.2h5.4
	c0.6-0.3,1.7-0.4,3.4-0.4c1.4,0.3,3.3,0.4,5.8,0.4h5.4c1.4-0.3,2.7-0.4,3.8-0.4c1.1,0,2.4,0,3.8,0c1.4,0,2.6,0.1,3.8,0.2
	c1.1,0.1,2.4,0.1,3.8-0.2c1.7,0,2.9,0.1,3.8,0.4h2.5c1.9-0.3,3.9-0.3,5.8,0h3.4c0.5-0.3,1.2-0.3,1.9-0.2c0.7,0.1,1.3,0.2,1.9,0.2
	c1.9,0,3.8,0.1,5.6,0.2c1.8,0.1,3.5,0.1,5.2-0.2c1.1-0.3,2.4-0.3,3.8,0h0.8c1.4-0.3,2.8-0.3,4.2-0.2c1.4,0.1,2.8,0.2,4.2,0.2h1.3
	c1.1-0.3,2.2-0.3,3.3,0h0.8c1.1-0.3,2.2-0.3,3.3-0.2c1.1,0.1,2.4,0.1,3.8-0.2c0.8,0,1.7,0,2.7,0c1,0,1.9,0.1,2.7,0.4
	c1.1,0,1.9-0.1,2.5-0.4c0.8,0,1.5,0.1,2.1,0.4h0.8c1.4-0.3,3.3-0.4,5.8-0.4c0.8,0.6,1.7,0.6,2.5,0h2.9c1.9,0,3.8,0,5.6,0
	c1.8,0,3.8,0.1,6.1,0.4c1.7-0.6,3.6-0.6,5.8,0c1.4,0,2.9-0.1,4.6-0.2c1.7-0.1,3.2-0.2,4.6-0.2c1.4,0,2.8,0.1,4.4,0.2
	c1.5,0.1,3,0.2,4.4,0.2h1.3c1.4-0.3,2.7-0.4,3.8-0.4c1.1,0,2.4,0,3.8,0c0.6,0,1.4,0.3,2.5,0.8c1.1,0.3,1.7,1.1,1.7,2.5
	c-0.3,0.3-0.4,0.6-0.4,0.8c0,0.3-0.1,0.6-0.4,0.8c-0.6,0.8-1.1,1.2-1.7,1.2H576h-5.8c-0.6,0-1.3,0.1-2.1,0.2
	c-0.8,0.2-1.5,0.1-2.1-0.2h-4.2h-4.6c-0.6-0.3-1.2-0.3-1.9,0c-0.7,0.3-1.3,0.3-1.9,0h-3.8h-4.2H543H540h-6.7c-1.7,0-2.9,0.1-3.8,0.4
	h-1.2c-0.6-0.3-1.4-0.4-2.5-0.4c-0.6,0.3-1.2,0.3-1.9,0c-0.7-0.3-1.3-0.3-1.9,0c-0.8,0.6-1.9,0.6-3.3,0h-1.7c-1.4,0.3-2.7,0.4-4,0.4
	c-1.2,0-2.6,0-4,0h-8.8c-0.5,0-1-0.1-1.5-0.2c-0.4-0.1-0.9-0.2-1.5-0.2c-0.6,0-1,0.1-1.5,0.2c-0.4,0.2-0.9,0.2-1.5,0.2h-18.4h-2.9
	h-8.8h-5h-9.2H441h-9.6h-10.9c-0.8,0.3-1.7,0.4-2.5,0.2c-0.8-0.1-1.8-0.2-2.9-0.2c-2.2,0-4.3,0-6.3,0c-2,0-4,0.1-6.3,0.4
	c-2.2,0-4.5,0-6.9,0c-2.4,0-4.8-0.1-7.3-0.4h-6.7c-0.3,0-0.6,0.1-0.8,0.2c-0.3,0.1-0.7,0.1-1.2-0.2h-1.7h-9.2c-1.4,0-2.8,0-4.2,0
	c-1.4,0-2.8,0.1-4.2,0.4c-1.7,0-3.3,0-5,0c-1.7,0-3.3-0.1-5-0.4H349c-1.1,0.3-2.6,0.4-4.6,0.4h-3.3c-0.6,0-1-0.1-1.5-0.2
	c-0.4-0.1-0.9-0.1-1.5,0.2c-1.7-0.3-3.3-0.3-5,0c-1.7,0.3-3.5,0.3-5.4,0H326h-2.1c-1.1-0.3-2.2-0.3-3.3,0h-1.3H316
	c-0.6-0.3-1.3-0.3-2.1-0.2c-0.8,0.1-1.5,0.2-2.1,0.2c-2,0-3.3,0.2-4.2,0.4h-0.8c-0.6-0.6-1.1-0.8-1.7-0.6c-0.6,0.1-1.1,0.2-1.7,0.2
	c-0.5-0.3-1.2-0.3-2.1,0c-0.8,0.3-1.5,0.3-2.1,0c-0.6-0.3-1.2-0.3-1.9-0.2c-0.7,0.1-1.3,0.2-1.9,0.2c-0.3-0.3-0.8-0.4-1.7-0.4
	c-1.1,0-1.7,0.1-1.7,0.4c-0.6,0-1,0.1-1.5,0.2c-0.4,0.1-0.9,0.1-1.5-0.2c-0.3-0.3-0.7-0.4-1.3-0.4c-0.5,0-1,0.1-1.4,0.4
	c-0.4,0.3-0.9,0.4-1.5,0.4c-0.6-0.3-1.5-0.4-2.9-0.4h-1.7h-0.4c-1.4-0.3-2.8-0.3-4.2-0.2c-1.4,0.1-2.8,0.2-4.2,0.2
	c-1.1,0-2.2,0.1-3.1,0.2c-1,0.1-2,0.1-3.1-0.2h-1.7c-0.6,0-1.2,0.1-1.9,0.2c-0.7,0.1-1.3,0.1-1.9-0.2h-1.7h-2.9h-1.7
	c-0.8,0.3-1.5,0.3-2.1,0c-0.6-0.3-1-0.3-1.5,0c-0.4,0.3-0.8,0.2-1.1-0.4c-0.3,0-0.4,0.1-0.4,0.4c-0.8,0.6-1.7,0.6-2.5,0h-1.3
	c-0.5,0-1,0.1-1.2,0.2c-0.3,0.1-0.7,0.1-1.3-0.2c-0.6-0.3-1-0.3-1.2-0.2c-0.3,0.1-0.7,0.2-1.3,0.2h-2.5c-0.6,0.3-1,0.3-1.4,0
	c-0.4-0.3-0.9-0.3-1.5,0c-0.6,0-1,0.1-1.5,0.2c-0.4,0.1-0.9,0.1-1.5-0.2h-0.8c-1.4,0.3-3.5,0.4-6.3,0.4c-0.6-0.3-1-0.3-1.3-0.2
	c-0.3,0.1-0.7,0.2-1.3,0.2c-0.6,0-1-0.1-1.2-0.2c-0.3-0.1-0.7-0.2-1.3-0.2h-0.8h-2.1c-1.4,0.6-2.7,0.6-3.8,0c-0.6,0-0.9-0.1-1.1-0.2
	c-0.1-0.1-0.5-0.1-1,0.2c-0.3,0.3-0.8,0.4-1.7,0.4c-1.1-0.6-2-0.7-2.5-0.4c-1.4,0-2.9,0.1-4.4,0.2c-1.5,0.1-3,0.1-4.4-0.2h-0.8
	c-0.8,0.3-1.7,0.3-2.5,0c-0.8-0.3-1.7-0.1-2.5,0.4h-1.3c-1.1-0.3-2.8-0.4-5-0.4c-0.8,0.3-2.1,0.4-3.8,0.4c-0.6,0-1.1-0.1-1.7-0.2
	c-0.6-0.1-1.1-0.1-1.7,0.2c-0.6-0.6-1.2-0.7-1.9-0.4c-0.7,0.3-1.3,0.3-1.9,0c-1.7,0-2.9,0.2-3.8,0.4c-1.4-0.3-2.6-0.3-3.8,0
	c-1.1,0.3-2.4,0.1-3.8-0.4c-1.1,0.3-2.2,0.4-3.3,0.2c-1.1-0.1-2.4-0.1-3.8,0.2c-0.8,0-1.5-0.1-2.1-0.4h-0.4
	c-0.6,0.3-1.1,0.4-1.7,0.2c-0.6-0.1-1.1-0.2-1.7-0.2c-0.6,0.3-1,0.4-1.5,0.2c-0.4-0.1-0.9-0.2-1.5-0.2c-0.6,0-1.1,0.1-1.7,0.2
	c-0.5,0.1-1.1,0.2-1.7,0.2c-0.6-0.3-1.1-0.3-1.7-0.2c-0.6,0.1-1.1,0.2-1.7,0.2c-2,0-3.3-0.1-4.2-0.4c-1.4,0-2.4,0.2-2.9,0.4
	c-0.6,0-1-0.1-1.2-0.4h-1.3c-0.8,0.3-1.7,0.4-2.7,0.2c-1-0.1-2-0.1-3.1,0.2c-1.4,0-2.5-0.1-3.3-0.4h-1.2c-0.6,0.6-1.3,0.8-2.1,0.6
	c-0.8-0.1-1.5-0.2-2.1-0.2c-0.3,0-0.5-0.1-0.6-0.2c-0.1-0.1-0.5-0.2-1-0.2c-1.7,0.6-3.3,0.7-5,0.4c-1.7-0.3-3.3-0.3-5,0h-9.2h-6.3
	c-0.6,0-1.2,0.1-1.9,0.2c-0.7,0.1-1.3,0.1-1.9-0.2h-1.2h-4.2c-0.6,0.3-1,0.3-1.5,0c-0.4-0.3-0.9-0.3-1.5,0h-2.5H74
	c-0.8,0-1.7,0.1-2.5,0.2c-0.8,0.1-1.5,0.1-2.1-0.2c-0.8-0.3-1.7-0.3-2.5-0.2c-0.8,0.1-1.7,0.2-2.5,0.2c-0.6,0-1.2,0.1-1.9,0.2
	c-0.7,0.1-1.3,0.1-1.9-0.2h-0.8c-0.6,0.3-1.3,0.4-2.1,0.2c-0.8-0.1-1.5-0.1-2.1,0.2c-1.7,0-2.8-0.1-3.4-0.4
	c-0.6-0.3-1.2-0.3-1.9-0.2c-0.7,0.1-1.3,0.2-1.9,0.2c-2.5,0.6-4.5,0.6-5.9,0c-0.6,0.3-1.2,0.3-2.1,0c-0.8-0.3-1.5-0.3-2.1,0
	C37.1,24.8,35.9,24.7,35.1,23.8z M74.8,24.2H74H74.8z"/>
<g>
</g>
<g>
</g>
<g>
</g>
<g>
</g>
<g>
</g>
<g>
</g>
</svg>
